<mxfile host="app.diagrams.net" modified="2024-02-08T13:59:03.678Z" agent="Mozilla/5.0 (Windows NT 10.0; Win64; x64) AppleWebKit/537.36 (KHTML, like Gecko) Chrome/121.0.0.0 Safari/537.36" etag="bRiafPygc4h5MXAJpQNj" version="23.1.2" type="google">
  <diagram name="Page-1" id="DhIxeFIy590FZDv0CIfZ">
    <mxGraphModel grid="1" page="1" gridSize="10" guides="1" tooltips="1" connect="1" arrows="1" fold="1" pageScale="1" pageWidth="850" pageHeight="1100" math="0" shadow="0">
      <root>
        <mxCell id="0" />
        <mxCell id="1" parent="0" />
        <mxCell id="kEKcQ2jegMMSar_55d6x-6" value="" style="whiteSpace=wrap;html=1;aspect=fixed;" vertex="1" parent="1">
          <mxGeometry x="160" y="110" width="920" height="920" as="geometry" />
        </mxCell>
        <mxCell id="kEKcQ2jegMMSar_55d6x-10" value="register" style="ellipse;whiteSpace=wrap;html=1;" vertex="1" parent="1">
          <mxGeometry x="290" y="120" width="120" height="80" as="geometry" />
        </mxCell>
        <mxCell id="kEKcQ2jegMMSar_55d6x-11" value="login&amp;nbsp;" style="ellipse;whiteSpace=wrap;html=1;" vertex="1" parent="1">
          <mxGeometry x="530" y="220" width="120" height="80" as="geometry" />
        </mxCell>
        <mxCell id="kEKcQ2jegMMSar_55d6x-13" value="extande&amp;nbsp;" style="endArrow=none;dashed=1;html=1;rounded=0;entryX=0;entryY=0;entryDx=0;entryDy=0;" edge="1" parent="1" target="kEKcQ2jegMMSar_55d6x-11">
          <mxGeometry width="50" height="50" relative="1" as="geometry">
            <mxPoint x="450" y="190" as="sourcePoint" />
            <mxPoint x="440" y="280" as="targetPoint" />
            <Array as="points">
              <mxPoint x="450" y="190" />
            </Array>
          </mxGeometry>
        </mxCell>
        <mxCell id="kEKcQ2jegMMSar_55d6x-14" value="admin&amp;nbsp;" style="shape=umlActor;verticalLabelPosition=bottom;verticalAlign=top;html=1;outlineConnect=0;" vertex="1" parent="1">
          <mxGeometry x="60" y="350" width="30" height="60" as="geometry" />
        </mxCell>
        <mxCell id="kEKcQ2jegMMSar_55d6x-15" value="user" style="shape=umlActor;verticalLabelPosition=bottom;verticalAlign=top;html=1;outlineConnect=0;" vertex="1" parent="1">
          <mxGeometry x="60" y="670" width="30" height="60" as="geometry" />
        </mxCell>
        <mxCell id="kEKcQ2jegMMSar_55d6x-17" value="delivery person&amp;nbsp;" style="shape=umlActor;verticalLabelPosition=bottom;verticalAlign=top;html=1;outlineConnect=0;" vertex="1" parent="1">
          <mxGeometry x="1150" y="360" width="30" height="60" as="geometry" />
        </mxCell>
        <mxCell id="kEKcQ2jegMMSar_55d6x-18" value="navigation menu" style="ellipse;whiteSpace=wrap;html=1;" vertex="1" parent="1">
          <mxGeometry x="320" y="280" width="120" height="80" as="geometry" />
        </mxCell>
        <mxCell id="kEKcQ2jegMMSar_55d6x-20" value="" style="endArrow=classic;html=1;rounded=0;exitX=0.194;exitY=0.957;exitDx=0;exitDy=0;exitPerimeter=0;" edge="1" parent="1" source="kEKcQ2jegMMSar_55d6x-11" target="kEKcQ2jegMMSar_55d6x-18">
          <mxGeometry width="50" height="50" relative="1" as="geometry">
            <mxPoint x="570" y="330" as="sourcePoint" />
            <mxPoint x="620" y="280" as="targetPoint" />
          </mxGeometry>
        </mxCell>
        <mxCell id="kEKcQ2jegMMSar_55d6x-21" value="food selation&amp;nbsp;" style="ellipse;whiteSpace=wrap;html=1;" vertex="1" parent="1">
          <mxGeometry x="365" y="410" width="120" height="80" as="geometry" />
        </mxCell>
        <mxCell id="kEKcQ2jegMMSar_55d6x-23" value="" style="endArrow=classic;html=1;rounded=0;entryX=0.5;entryY=0;entryDx=0;entryDy=0;" edge="1" parent="1" source="kEKcQ2jegMMSar_55d6x-18" target="kEKcQ2jegMMSar_55d6x-21">
          <mxGeometry width="50" height="50" relative="1" as="geometry">
            <mxPoint x="570" y="500" as="sourcePoint" />
            <mxPoint x="620" y="450" as="targetPoint" />
            <Array as="points">
              <mxPoint x="380" y="400" />
            </Array>
          </mxGeometry>
        </mxCell>
        <mxCell id="kEKcQ2jegMMSar_55d6x-25" value="add&amp;nbsp; items&amp;nbsp;" style="ellipse;whiteSpace=wrap;html=1;" vertex="1" parent="1">
          <mxGeometry x="550" y="450" width="120" height="80" as="geometry" />
        </mxCell>
        <mxCell id="kEKcQ2jegMMSar_55d6x-26" value="" style="endArrow=classic;html=1;rounded=0;exitX=1;exitY=0.5;exitDx=0;exitDy=0;entryX=0;entryY=0.5;entryDx=0;entryDy=0;" edge="1" parent="1" source="kEKcQ2jegMMSar_55d6x-21" target="kEKcQ2jegMMSar_55d6x-25">
          <mxGeometry width="50" height="50" relative="1" as="geometry">
            <mxPoint x="570" y="500" as="sourcePoint" />
            <mxPoint x="620" y="450" as="targetPoint" />
          </mxGeometry>
        </mxCell>
        <mxCell id="kEKcQ2jegMMSar_55d6x-27" value="remove order" style="ellipse;whiteSpace=wrap;html=1;" vertex="1" parent="1">
          <mxGeometry x="390" y="570" width="120" height="80" as="geometry" />
        </mxCell>
        <mxCell id="kEKcQ2jegMMSar_55d6x-28" value="remove item&amp;nbsp;" style="ellipse;whiteSpace=wrap;html=1;" vertex="1" parent="1">
          <mxGeometry x="580" y="560" width="120" height="80" as="geometry" />
        </mxCell>
        <mxCell id="kEKcQ2jegMMSar_55d6x-31" value="" style="endArrow=classic;html=1;rounded=0;entryX=0.5;entryY=0;entryDx=0;entryDy=0;exitX=0.573;exitY=1.021;exitDx=0;exitDy=0;exitPerimeter=0;" edge="1" parent="1" source="kEKcQ2jegMMSar_55d6x-25" target="kEKcQ2jegMMSar_55d6x-28">
          <mxGeometry width="50" height="50" relative="1" as="geometry">
            <mxPoint x="570" y="500" as="sourcePoint" />
            <mxPoint x="620" y="450" as="targetPoint" />
          </mxGeometry>
        </mxCell>
        <mxCell id="kEKcQ2jegMMSar_55d6x-32" value="" style="endArrow=classic;html=1;rounded=0;exitX=0;exitY=0.5;exitDx=0;exitDy=0;entryX=0.921;entryY=0.204;entryDx=0;entryDy=0;entryPerimeter=0;" edge="1" parent="1" source="kEKcQ2jegMMSar_55d6x-28" target="kEKcQ2jegMMSar_55d6x-27">
          <mxGeometry width="50" height="50" relative="1" as="geometry">
            <mxPoint x="570" y="500" as="sourcePoint" />
            <mxPoint x="620" y="450" as="targetPoint" />
          </mxGeometry>
        </mxCell>
        <mxCell id="kEKcQ2jegMMSar_55d6x-33" value="online pyment&amp;nbsp;" style="ellipse;whiteSpace=wrap;html=1;" vertex="1" parent="1">
          <mxGeometry x="365" y="700" width="120" height="80" as="geometry" />
        </mxCell>
        <mxCell id="kEKcQ2jegMMSar_55d6x-34" value="pay to order in cash" style="ellipse;whiteSpace=wrap;html=1;" vertex="1" parent="1">
          <mxGeometry x="590" y="700" width="120" height="80" as="geometry" />
        </mxCell>
        <mxCell id="kEKcQ2jegMMSar_55d6x-35" value="extend&amp;nbsp;" style="endArrow=none;dashed=1;html=1;dashPattern=1 3;strokeWidth=2;rounded=0;exitX=1;exitY=0.5;exitDx=0;exitDy=0;entryX=0;entryY=0.5;entryDx=0;entryDy=0;" edge="1" parent="1" source="kEKcQ2jegMMSar_55d6x-33" target="kEKcQ2jegMMSar_55d6x-34">
          <mxGeometry width="50" height="50" relative="1" as="geometry">
            <mxPoint x="570" y="500" as="sourcePoint" />
            <mxPoint x="620" y="450" as="targetPoint" />
          </mxGeometry>
        </mxCell>
        <mxCell id="kEKcQ2jegMMSar_55d6x-36" value="" style="endArrow=classic;html=1;rounded=0;exitX=0.762;exitY=0.619;exitDx=0;exitDy=0;exitPerimeter=0;" edge="1" parent="1" source="kEKcQ2jegMMSar_55d6x-6" target="kEKcQ2jegMMSar_55d6x-34">
          <mxGeometry width="50" height="50" relative="1" as="geometry">
            <mxPoint x="740" y="670" as="sourcePoint" />
            <mxPoint x="620" y="450" as="targetPoint" />
          </mxGeometry>
        </mxCell>
        <mxCell id="kEKcQ2jegMMSar_55d6x-38" value="" style="endArrow=classic;html=1;rounded=0;exitX=0.921;exitY=0.765;exitDx=0;exitDy=0;exitPerimeter=0;" edge="1" parent="1" source="kEKcQ2jegMMSar_55d6x-25">
          <mxGeometry width="50" height="50" relative="1" as="geometry">
            <mxPoint x="600" y="650" as="sourcePoint" />
            <mxPoint x="860" y="680" as="targetPoint" />
          </mxGeometry>
        </mxCell>
        <mxCell id="kEKcQ2jegMMSar_55d6x-39" value="recive for order" style="ellipse;whiteSpace=wrap;html=1;" vertex="1" parent="1">
          <mxGeometry x="360" y="810" width="120" height="80" as="geometry" />
        </mxCell>
        <mxCell id="kEKcQ2jegMMSar_55d6x-40" value="" style="endArrow=classic;html=1;rounded=0;exitX=0;exitY=1;exitDx=0;exitDy=0;entryX=1;entryY=0;entryDx=0;entryDy=0;" edge="1" parent="1" source="kEKcQ2jegMMSar_55d6x-34" target="kEKcQ2jegMMSar_55d6x-39">
          <mxGeometry width="50" height="50" relative="1" as="geometry">
            <mxPoint x="600" y="820" as="sourcePoint" />
            <mxPoint x="650" y="770" as="targetPoint" />
          </mxGeometry>
        </mxCell>
        <mxCell id="kEKcQ2jegMMSar_55d6x-41" value="update menu&amp;nbsp;" style="ellipse;whiteSpace=wrap;html=1;" vertex="1" parent="1">
          <mxGeometry x="550" y="820" width="120" height="80" as="geometry" />
        </mxCell>
        <mxCell id="kEKcQ2jegMMSar_55d6x-42" value="recive conformation&amp;nbsp;" style="ellipse;whiteSpace=wrap;html=1;" vertex="1" parent="1">
          <mxGeometry x="720" y="840" width="120" height="80" as="geometry" />
        </mxCell>
        <mxCell id="kEKcQ2jegMMSar_55d6x-43" value="check out&amp;nbsp;" style="ellipse;whiteSpace=wrap;html=1;" vertex="1" parent="1">
          <mxGeometry x="810" y="960" width="120" height="80" as="geometry" />
        </mxCell>
        <mxCell id="kEKcQ2jegMMSar_55d6x-44" value="" style="endArrow=classic;html=1;rounded=0;exitX=1;exitY=0.5;exitDx=0;exitDy=0;entryX=0;entryY=0.5;entryDx=0;entryDy=0;" edge="1" parent="1" source="kEKcQ2jegMMSar_55d6x-39" target="kEKcQ2jegMMSar_55d6x-41">
          <mxGeometry width="50" height="50" relative="1" as="geometry">
            <mxPoint x="600" y="820" as="sourcePoint" />
            <mxPoint x="650" y="770" as="targetPoint" />
          </mxGeometry>
        </mxCell>
        <mxCell id="kEKcQ2jegMMSar_55d6x-45" value="" style="endArrow=classic;html=1;rounded=0;exitX=0.988;exitY=0.401;exitDx=0;exitDy=0;exitPerimeter=0;entryX=0;entryY=1;entryDx=0;entryDy=0;" edge="1" parent="1" source="kEKcQ2jegMMSar_55d6x-41" target="kEKcQ2jegMMSar_55d6x-42">
          <mxGeometry width="50" height="50" relative="1" as="geometry">
            <mxPoint x="600" y="820" as="sourcePoint" />
            <mxPoint x="650" y="770" as="targetPoint" />
          </mxGeometry>
        </mxCell>
        <mxCell id="kEKcQ2jegMMSar_55d6x-46" value="" style="endArrow=classic;html=1;rounded=0;exitX=0.794;exitY=0.913;exitDx=0;exitDy=0;exitPerimeter=0;entryX=0.249;entryY=-0.004;entryDx=0;entryDy=0;entryPerimeter=0;" edge="1" parent="1" source="kEKcQ2jegMMSar_55d6x-42" target="kEKcQ2jegMMSar_55d6x-43">
          <mxGeometry width="50" height="50" relative="1" as="geometry">
            <mxPoint x="600" y="820" as="sourcePoint" />
            <mxPoint x="650" y="770" as="targetPoint" />
          </mxGeometry>
        </mxCell>
        <mxCell id="kEKcQ2jegMMSar_55d6x-48" value="" style="endArrow=classic;html=1;rounded=0;entryX=0.196;entryY=0.098;entryDx=0;entryDy=0;entryPerimeter=0;" edge="1" parent="1" target="kEKcQ2jegMMSar_55d6x-6">
          <mxGeometry width="50" height="50" relative="1" as="geometry">
            <mxPoint x="100" y="390" as="sourcePoint" />
            <mxPoint x="150" y="340" as="targetPoint" />
          </mxGeometry>
        </mxCell>
        <mxCell id="kEKcQ2jegMMSar_55d6x-49" value="" style="endArrow=classic;html=1;rounded=0;entryX=0.04;entryY=0.743;entryDx=0;entryDy=0;entryPerimeter=0;" edge="1" parent="1" target="kEKcQ2jegMMSar_55d6x-25">
          <mxGeometry width="50" height="50" relative="1" as="geometry">
            <mxPoint x="100" y="690" as="sourcePoint" />
            <mxPoint x="150" y="640" as="targetPoint" />
          </mxGeometry>
        </mxCell>
        <mxCell id="kEKcQ2jegMMSar_55d6x-50" value="" style="endArrow=classic;html=1;rounded=0;" edge="1" parent="1">
          <mxGeometry width="50" height="50" relative="1" as="geometry">
            <mxPoint x="50" y="650" as="sourcePoint" />
            <mxPoint x="50" y="200" as="targetPoint" />
          </mxGeometry>
        </mxCell>
        <mxCell id="kEKcQ2jegMMSar_55d6x-51" value="" style="endArrow=classic;html=1;rounded=0;" edge="1" parent="1" target="kEKcQ2jegMMSar_55d6x-10">
          <mxGeometry width="50" height="50" relative="1" as="geometry">
            <mxPoint x="50" y="210" as="sourcePoint" />
            <mxPoint x="100" y="160" as="targetPoint" />
          </mxGeometry>
        </mxCell>
        <mxCell id="kEKcQ2jegMMSar_55d6x-52" value="" style="endArrow=classic;html=1;rounded=0;entryX=1.005;entryY=0.396;entryDx=0;entryDy=0;entryPerimeter=0;" edge="1" parent="1" target="kEKcQ2jegMMSar_55d6x-10">
          <mxGeometry width="50" height="50" relative="1" as="geometry">
            <mxPoint x="1130" y="370" as="sourcePoint" />
            <mxPoint x="1180" y="320" as="targetPoint" />
          </mxGeometry>
        </mxCell>
        <mxCell id="kEKcQ2jegMMSar_55d6x-53" value="" style="endArrow=classic;html=1;rounded=0;entryX=0;entryY=0.5;entryDx=0;entryDy=0;" edge="1" parent="1" target="kEKcQ2jegMMSar_55d6x-18">
          <mxGeometry width="50" height="50" relative="1" as="geometry">
            <mxPoint x="80" y="660" as="sourcePoint" />
            <mxPoint x="130" y="610" as="targetPoint" />
          </mxGeometry>
        </mxCell>
        <mxCell id="kEKcQ2jegMMSar_55d6x-55" value="" style="endArrow=classic;html=1;rounded=0;entryX=0.049;entryY=0.743;entryDx=0;entryDy=0;entryPerimeter=0;" edge="1" parent="1" target="kEKcQ2jegMMSar_55d6x-21">
          <mxGeometry width="50" height="50" relative="1" as="geometry">
            <mxPoint x="90" y="660" as="sourcePoint" />
            <mxPoint x="140" y="610" as="targetPoint" />
          </mxGeometry>
        </mxCell>
        <mxCell id="kEKcQ2jegMMSar_55d6x-56" value="" style="endArrow=classic;html=1;rounded=0;entryX=0;entryY=0.5;entryDx=0;entryDy=0;" edge="1" parent="1" target="kEKcQ2jegMMSar_55d6x-27">
          <mxGeometry width="50" height="50" relative="1" as="geometry">
            <mxPoint x="100" y="700" as="sourcePoint" />
            <mxPoint x="150" y="650" as="targetPoint" />
          </mxGeometry>
        </mxCell>
        <mxCell id="kEKcQ2jegMMSar_55d6x-57" value="" style="endArrow=classic;html=1;rounded=0;entryX=0.533;entryY=0.576;entryDx=0;entryDy=0;entryPerimeter=0;" edge="1" parent="1" target="kEKcQ2jegMMSar_55d6x-6">
          <mxGeometry width="50" height="50" relative="1" as="geometry">
            <mxPoint x="100" y="710" as="sourcePoint" />
            <mxPoint x="150" y="660" as="targetPoint" />
          </mxGeometry>
        </mxCell>
        <mxCell id="kEKcQ2jegMMSar_55d6x-58" value="" style="endArrow=classic;html=1;rounded=0;" edge="1" parent="1" target="kEKcQ2jegMMSar_55d6x-33">
          <mxGeometry width="50" height="50" relative="1" as="geometry">
            <mxPoint x="100" y="725" as="sourcePoint" />
            <mxPoint x="150" y="675" as="targetPoint" />
          </mxGeometry>
        </mxCell>
        <mxCell id="kEKcQ2jegMMSar_55d6x-59" value="" style="endArrow=classic;html=1;rounded=0;" edge="1" parent="1" target="kEKcQ2jegMMSar_55d6x-39">
          <mxGeometry width="50" height="50" relative="1" as="geometry">
            <mxPoint x="100" y="740" as="sourcePoint" />
            <mxPoint x="150" y="690" as="targetPoint" />
          </mxGeometry>
        </mxCell>
        <mxCell id="kEKcQ2jegMMSar_55d6x-60" value="" style="endArrow=classic;html=1;rounded=0;" edge="1" parent="1">
          <mxGeometry width="50" height="50" relative="1" as="geometry">
            <mxPoint x="90" y="760" as="sourcePoint" />
            <mxPoint x="130" y="960" as="targetPoint" />
          </mxGeometry>
        </mxCell>
        <mxCell id="kEKcQ2jegMMSar_55d6x-61" value="" style="endArrow=classic;html=1;rounded=0;entryX=0.366;entryY=1.001;entryDx=0;entryDy=0;entryPerimeter=0;" edge="1" parent="1" target="kEKcQ2jegMMSar_55d6x-41">
          <mxGeometry width="50" height="50" relative="1" as="geometry">
            <mxPoint x="140" y="960" as="sourcePoint" />
            <mxPoint x="190" y="910" as="targetPoint" />
          </mxGeometry>
        </mxCell>
        <mxCell id="kEKcQ2jegMMSar_55d6x-62" value="" style="endArrow=classic;html=1;rounded=0;" edge="1" parent="1">
          <mxGeometry width="50" height="50" relative="1" as="geometry">
            <mxPoint x="60" y="760" as="sourcePoint" />
            <mxPoint x="110" y="1010" as="targetPoint" />
          </mxGeometry>
        </mxCell>
        <mxCell id="kEKcQ2jegMMSar_55d6x-63" value="" style="endArrow=classic;html=1;rounded=0;entryX=0;entryY=0.5;entryDx=0;entryDy=0;" edge="1" parent="1" target="kEKcQ2jegMMSar_55d6x-43">
          <mxGeometry width="50" height="50" relative="1" as="geometry">
            <mxPoint x="120" y="1010" as="sourcePoint" />
            <mxPoint x="170" y="960" as="targetPoint" />
          </mxGeometry>
        </mxCell>
        <mxCell id="kEKcQ2jegMMSar_55d6x-64" value="" style="endArrow=classic;html=1;rounded=0;entryX=-0.018;entryY=0.401;entryDx=0;entryDy=0;entryPerimeter=0;" edge="1" parent="1" target="kEKcQ2jegMMSar_55d6x-18">
          <mxGeometry width="50" height="50" relative="1" as="geometry">
            <mxPoint x="110" y="405" as="sourcePoint" />
            <mxPoint x="160" y="355" as="targetPoint" />
          </mxGeometry>
        </mxCell>
        <mxCell id="kEKcQ2jegMMSar_55d6x-65" value="" style="endArrow=classic;startArrow=classic;html=1;rounded=0;entryX=1;entryY=0.5;entryDx=0;entryDy=0;" edge="1" parent="1" target="kEKcQ2jegMMSar_55d6x-18">
          <mxGeometry width="50" height="50" relative="1" as="geometry">
            <mxPoint x="1120" y="390" as="sourcePoint" />
            <mxPoint x="1170" y="340" as="targetPoint" />
          </mxGeometry>
        </mxCell>
      </root>
    </mxGraphModel>
  </diagram>
</mxfile>
